<?xml version="1.0" encoding="UTF-8"?>
<svg version="1.1" xmlns="http://www.w3.org/2000/svg" width="512" height="512">
<path d="M0 0 C168.96 0 337.92 0 512 0 C512 168.96 512 337.92 512 512 C343.04 512 174.08 512 0 512 C0 343.04 0 174.08 0 0 Z " fill="#FEFEFE" transform="translate(0,0)"/>
<path d="M0 0 C168.96 0 337.92 0 512 0 C512 168.96 512 337.92 512 512 C343.04 512 174.08 512 0 512 C0 343.04 0 174.08 0 0 Z M10.02764595 50.15258491 C7.6501865 53.49124169 7.37535613 55.11386499 7.37638092 59.17667389 C7.36457558 60.42711786 7.35277024 61.67756183 7.34060717 62.96589804 C7.35279892 64.35084526 7.36546007 65.73578842 7.37854004 67.12072754 C7.37421129 68.59404086 7.36769553 70.0673491 7.35917997 71.54064417 C7.34216381 75.5902726 7.35638646 79.63928412 7.37569475 83.68888021 C7.39110219 88.0556881 7.37772496 92.42241944 7.36795044 96.78923035 C7.35341115 105.34420377 7.36567069 113.89894017 7.38706368 122.45389116 C7.41105432 132.41253707 7.4093605 142.37112845 7.40675777 152.32979685 C7.40306607 170.0963787 7.42390626 187.86284875 7.45800781 205.62939453 C7.49110013 222.87649359 7.50526628 240.1234753 7.49902344 257.37060547 C7.4922619 276.1431372 7.49471295 294.91561974 7.51438284 313.68814421 C7.51542232 314.68051261 7.51646181 315.672881 7.5175328 316.69532117 C7.51962372 318.6885452 7.5217347 320.6817692 7.52386597 322.67499319 C7.53076633 329.61974346 7.53143008 336.56447859 7.52998352 343.50923157 C7.52854493 351.97042176 7.53821433 360.43151617 7.56192988 368.89267457 C7.57380322 373.21123634 7.58090617 377.52966447 7.57509232 381.84824181 C7.56992983 385.79968398 7.57857546 389.75084353 7.59836692 393.70223731 C7.60311624 395.1335189 7.60279453 396.56482793 7.59695655 397.99610549 C7.58979789 399.93851054 7.60282189 401.88095882 7.61688995 403.82332611 C7.61846116 404.90319841 7.62003236 405.98307071 7.62165117 407.09566641 C8.05501958 410.42234894 9.02291832 412.31237631 11 415 C13.86688904 416.43344452 16.35676078 416.16454059 19.56103516 416.20532227 C20.23432358 416.21522186 20.907612 416.22512146 21.6013031 416.23532104 C23.83052026 416.26695115 26.05975874 416.29169934 28.2890625 416.31640625 C29.83320678 416.33697448 31.37734541 416.35797092 32.92147827 416.37937927 C36.98864167 416.43461349 41.05585599 416.48401678 45.12310791 416.53222656 C49.27222229 416.58243175 53.42126259 416.63812293 57.5703125 416.69335938 C65.71347905 416.80095746 73.85670752 416.90239874 82 417 C81.45472656 418.05912598 80.90945312 419.11825195 80.34765625 420.20947266 C78.32270811 424.15055005 76.31379928 428.0996208 74.30957031 432.05126953 C73.4408624 433.75856237 72.56785333 435.46367391 71.69042969 437.16650391 C70.42799653 439.61837238 69.18137743 442.07773909 67.9375 444.5390625 C67.54377197 445.29555084 67.15004395 446.05203918 66.74438477 446.83145142 C64.64876998 451.02004566 63.31414641 454.20167635 64 459 C66.45594125 462.32274404 67.9256644 463.77618008 72 464.625 C75.79259499 464.1207821 75.79259499 464.1207821 80 459 C90.395 438.21 90.395 438.21 101 417 C203.3 417 305.6 417 411 417 C418.26 431.52 425.52 446.04 433 461 C436.85734701 464.16959544 436.85734701 464.16959544 441.0625 463.9375 C443.79221598 463.45967262 444.83916431 463.13570511 447 461.3125 C448.52589866 457.78385935 448.63215995 454.73168555 447.29736328 451.07525635 C446.27763521 448.8621974 445.18747233 446.70052522 444.0625 444.5390625 C443.46320679 443.3532106 443.46320679 443.3532106 442.85180664 442.1434021 C441.5790696 439.63138675 440.2898629 437.12825742 439 434.625 C438.13171032 432.91852912 437.26451031 431.21150332 436.3984375 429.50390625 C434.27819349 425.32940415 432.14314296 421.1627892 430 417 C430.84080612 416.99413376 431.68161224 416.98826752 432.54789734 416.98222351 C440.47852842 416.92427754 448.40887843 416.85218994 456.33923626 416.76428509 C460.41616012 416.71959101 464.49298427 416.68033293 468.57006836 416.65356445 C472.50599859 416.62752161 476.44154495 416.58711271 480.37723732 416.53681374 C481.8774519 416.52015157 483.37773286 416.50863322 484.87802696 416.50238609 C486.98248746 416.49273751 489.08596738 416.46467174 491.19018555 416.43237305 C492.98555 416.41571846 492.98555 416.41571846 494.81718445 416.39872742 C498.3196219 415.95995935 500.22434748 415.15683242 503 413 C504.07490781 409.77527658 504.12751744 407.45832221 504.13142776 404.06662846 C504.13526891 402.81954989 504.13911005 401.57247131 504.1430676 400.28760248 C504.14228731 398.89608572 504.14140852 397.50456901 504.14044189 396.11305237 C504.14302479 394.64075945 504.14603773 393.16846723 504.1494453 391.69617599 C504.15752724 387.64031113 504.15930553 383.58446395 504.16004276 379.52859199 C504.1618912 375.1583794 504.16943739 370.78817603 504.17617798 366.41796875 C504.18976943 356.85826661 504.19578704 347.29856866 504.20018864 337.73885846 C504.2029492 331.77328671 504.20718616 325.80771658 504.21169281 319.84214592 C504.22388562 303.33469653 504.23418551 286.82724845 504.2375679 270.31979465 C504.23778747 269.26296905 504.23800703 268.20614344 504.23823325 267.11729282 C504.23845153 266.05790252 504.23866981 264.99851223 504.2388947 263.9070192 C504.23933817 261.76019704 504.23978473 259.61337489 504.24023438 257.46655273 C504.2404558 256.40164901 504.24067723 255.33674528 504.24090537 254.23957174 C504.24485574 236.97358635 504.26231698 219.7076431 504.2855939 202.441674 C504.30928297 184.72748363 504.3217686 167.01331444 504.32293582 149.29910797 C504.32385386 139.34810494 504.3296387 129.39715684 504.34775543 119.4461689 C504.36312335 110.97504254 504.36829646 102.50398809 504.36001733 94.03285045 C504.35609929 89.70833584 504.35709641 85.38396618 504.37107468 81.05946922 C504.38374456 77.10370706 504.3826775 73.14819982 504.37048396 69.19243836 C504.36851492 67.7584128 504.37166066 66.3243696 504.38032833 64.89036889 C504.39133661 62.94667931 504.38218628 61.00290641 504.3719368 59.05921268 C504.37253389 57.97787652 504.37313097 56.89654036 504.37374616 55.78243643 C503.94815827 52.61405273 503.23241018 51.25862795 501 49 C497.31209546 47.77069849 493.91063111 47.85700258 490.07039833 47.86298561 C488.83916115 47.85900787 488.83916115 47.85900787 487.58305049 47.85494977 C484.80882446 47.8472377 482.03464255 47.84669687 479.26040649 47.84609985 C477.26085174 47.84208651 475.26129781 47.8376485 473.26174486 47.8328203 C467.74841326 47.82083507 462.23509043 47.81520186 456.72174835 47.81063914 C450.78299381 47.8046906 444.84424978 47.79307907 438.90550232 47.78234863 C425.23417117 47.75897014 411.56283585 47.74441655 397.89149122 47.73211922 C393.16277796 47.72786528 388.43406508 47.72329958 383.70535231 47.7185359 C358.57164639 47.69327955 333.43793983 47.6712277 308.30422401 47.65880775 C302.48081078 47.65588635 296.65739756 47.65291884 290.83398438 47.64990234 C289.74874 47.64934598 289.74874 47.64934598 288.64157149 47.64877838 C265.17315526 47.63661724 241.70481393 47.60566342 218.2364329 47.56398082 C194.11738513 47.52122054 169.99837694 47.49457035 145.87929023 47.48933304 C142.4748081 47.48859256 139.07032603 47.48768187 135.66584396 47.48667526 C134.9957926 47.48648465 134.32574123 47.48629403 133.63538528 47.48609764 C122.84020244 47.48258036 112.04511327 47.46226569 101.24996486 47.43587863 C90.40548704 47.40977002 79.56112294 47.40240658 68.71661855 47.41297992 C62.838541 47.41818394 56.96076205 47.41516672 51.08272743 47.39051437 C45.70632112 47.3681532 40.3304302 47.36865902 34.95401566 47.38771825 C33.00449332 47.39053675 31.054937 47.38481812 29.10546966 47.36990531 C26.46343899 47.35092326 23.82326973 47.36250279 21.18128395 47.38196754 C20.03511156 47.36269371 20.03511156 47.36269371 18.86578417 47.34303051 C15.05295921 47.40512654 13.14351343 47.89606728 10.02764595 50.15258491 Z " fill="#FEFEFE" transform="translate(0,0)"/>
<path d="M0 0 C1.43545166 0.00737183 1.43545166 0.00737183 2.89990234 0.01489258 C22.75148619 0.33465624 41.57135808 3.86554192 55.9765625 18.6640625 C66.50683666 31.08741966 70.25610346 45.78276325 69.9375 61.8125 C69.93234375 62.85019531 69.9271875 63.88789063 69.921875 64.95703125 C69.85875468 71.29273338 69.46604229 77.53310004 68.79980469 83.83398438 C68.53288007 86.44671625 68.53288007 86.44671625 69.6875 89.3125 C70.55353859 99.30743718 69.49004028 108.69975735 63.25 116.875 C60.6875 119.3125 60.6875 119.3125 58.11328125 120.1640625 C55.51009339 121.06574608 55.51009339 121.06574608 54.7890625 123.45703125 C54.63179687 124.33746094 54.47453125 125.21789062 54.3125 126.125 C52.7393447 132.96912967 49.6451336 142.1409091 43.99609375 146.66796875 C41.70685396 149.54489398 42.21711623 153.10643646 42.25 156.625 C42.23001953 157.37201172 42.21003906 158.11902344 42.18945312 158.88867188 C42.19407348 164.15125509 43.15441291 167.19651302 46.6875 171.3125 C58.81487866 181.18791489 74.83090824 185.32289548 89.625 189.375 C104.8953823 193.56591635 116.44454688 199.20744672 124.6875 213.3125 C127.33271303 219.12081415 129.23894375 224.92057346 129.6875 231.3125 C129.76226562 232.27542969 129.83703125 233.23835937 129.9140625 234.23046875 C130.29165691 242.38849532 130.29165691 242.38849532 127.5625 246.5625 C124.13562458 248.64842417 122.6205652 249.13188858 118.6875 248.3125 C115.875 246.625 115.875 246.625 113.6875 243.3125 C113.24776641 240.11563677 113.1155452 236.96186252 112.98046875 233.73828125 C112.31667341 225.97630113 109.49604357 218.61595282 103.6875 213.3125 C96.7217104 209.16417408 89.31211309 206.73319003 81.5625 204.5 C80.510625 204.18869141 79.45875 203.87738281 78.375 203.55664062 C75.81482682 202.80022582 73.25249472 202.05236532 70.6875 201.3125 C70.42066406 202.20453125 70.15382813 203.0965625 69.87890625 204.015625 C64.27685325 219.51769953 50.04898431 230.65463332 35.77734375 237.76171875 C31.31363535 239.68050743 27.62443606 240.83217748 22.6875 240.3125 C22.419375 241.26125 22.15125 242.21 21.875 243.1875 C20.6875 246.3125 20.6875 246.3125 17.6875 248.3125 C13.74645448 248.91222432 12.13737165 248.59965212 8.75 246.4375 C5.77084571 241.92362986 6.6530463 238.45166599 7.6875 233.3125 C7.996875 232.24 8.30625 231.1675 8.625 230.0625 C8.97087063 227.32576427 8.97087063 227.32576427 7.4140625 225.6171875 C5.89895042 224.08784902 4.35361293 222.67436622 2.6875 221.3125 C-0.7670751 222.79303218 -3.27699174 224.10266005 -5.3125 227.3125 C-5.04888801 230.12733993 -4.46308957 232.79154164 -3.8515625 235.55078125 C-3.11552474 239.32164138 -3.16510396 241.64083266 -4.3125 245.3125 C-7.26835737 248.09448341 -8.87605026 248.3125 -12.9375 248.3125 C-16.3125 247.3125 -16.3125 247.3125 -18.25 244.875 C-19.3125 242.3125 -19.3125 242.3125 -19.3125 240.3125 C-20.30765625 240.38339844 -21.3028125 240.45429688 -22.328125 240.52734375 C-27.01586066 240.27457369 -29.96754825 239.02349034 -34.0625 236.875 C-34.76060791 236.51446533 -35.45871582 236.15393066 -36.17797852 235.7824707 C-49.58099501 228.62237736 -61.15288737 217.39603642 -67.3125 203.3125 C-67.3125 202.6525 -67.3125 201.9925 -67.3125 201.3125 C-68.10011719 201.55484375 -68.88773437 201.7971875 -69.69921875 202.046875 C-70.78847656 202.38203125 -71.87773437 202.7171875 -73 203.0625 C-74.18464844 203.43117188 -75.36929688 203.79984375 -76.58984375 204.1796875 C-78.96860628 204.90355018 -81.3562559 205.59920707 -83.75390625 206.2578125 C-92.52944341 208.72366592 -101.45069242 212.08482564 -106.3125 220.3125 C-108.6300967 225.89151106 -109.43532919 231.10697765 -109.6875 237.125 C-109.94365548 241.3842127 -110.09780117 242.98738463 -112.5 246.625 C-115.89248791 248.66049275 -117.43070367 249.12120757 -121.3125 248.3125 C-124.1875 246.6875 -124.1875 246.6875 -126.3125 243.3125 C-128.17309102 229.55114754 -124.01488815 216.96439926 -116.5 205.5625 C-105.97827615 194.74015546 -92.99422084 190.79236701 -78.82226562 186.98852539 C-57.5496829 181.3269588 -57.5496829 181.3269588 -40.58984375 168.12109375 C-38.90777082 164.42259088 -38.73734462 160.99473567 -38.75 157 C-38.75253784 155.8550708 -38.75253784 155.8550708 -38.75512695 154.68701172 C-38.92845969 149.28065347 -39.86255256 146.19116799 -43.65234375 142.1953125 C-47.82984745 137.45753184 -50.11058382 130.8819983 -51.3125 124.75 C-51.6425 123.615625 -51.9725 122.48125 -52.3125 121.3125 C-54.64104463 120.11411791 -54.64104463 120.11411791 -57.3125 119.3125 C-63.07048125 113.83539588 -65.93140329 106.85919547 -66.59375 98.95703125 C-66.63601477 94.36602049 -66.4097478 89.98242928 -65.75 85.4375 C-65.16398579 82.32175892 -65.16398579 82.32175892 -65.765625 79.25 C-68.4618576 59.83712526 -65.39809909 44.18376538 -54.0625 28.125 C-50.87656854 24.86666101 -47.43009271 22.50219421 -43.66015625 19.96484375 C-40.88642013 18.0126135 -38.67767072 15.73831613 -36.3125 13.3125 C-25.44170923 3.85684176 -14.3466328 -0.08783653 0 0 Z " fill="#040404" transform="translate(342.3125,79.6875)"/>
<path d="M0 0 C0.82313248 -0.00666801 1.64626495 -0.01333602 2.49434084 -0.02020609 C5.26484065 -0.03650613 8.0339403 -0.01703289 10.80440521 0.00215912 C12.80569093 -0.00216795 14.80697292 -0.00868218 16.80824518 -0.01720095 C22.31721734 -0.03424157 27.82573704 -0.01997687 33.33468556 -0.00068617 C39.27205396 0.01470429 45.20936558 0.00134841 51.14673615 -0.00843048 C62.10890164 -0.02213705 73.0709266 -0.01323309 84.0330755 0.00698569 C94.15948509 0.0255314 104.285843 0.03396533 114.41226959 0.0324173 C115.08357846 0.03232562 115.75488732 0.03223395 116.44653888 0.03213949 C119.17149557 0.03174634 121.89645223 0.03129672 124.62140889 0.0307681 C150.19161122 0.0258953 175.76172181 0.04857056 201.33189563 0.08472433 C224.05708546 0.11671841 246.78219691 0.12876803 269.50740814 0.12264252 C270.9665518 0.12225567 272.42569546 0.12186922 273.88483912 0.12148315 C274.60620671 0.1212918 275.32757431 0.12110046 276.07080153 0.12090331 C279.70195565 0.11994899 283.33310978 0.11903462 286.96426392 0.11816406 C287.68061127 0.11799027 288.39695862 0.11781647 289.13501346 0.11763741 C308.11542334 0.11328369 327.09582474 0.12329345 346.07622862 0.13800192 C347.08882462 0.13878213 347.08882462 0.13878213 348.1218771 0.13957811 C349.13264043 0.14035712 349.13264043 0.14035712 350.16382322 0.14115188 C350.83644349 0.14166962 351.50906376 0.14218736 352.20206646 0.14272078 C353.55667984 0.14376888 354.9112932 0.14482909 356.26590656 0.1459015 C365.71578414 0.15328678 375.16564974 0.15536946 384.61552985 0.1539075 C396.79262045 0.15206302 408.96964275 0.16043525 421.14671052 0.18554896 C427.02066657 0.19743158 432.89452422 0.20451907 438.76849174 0.1987114 C444.14102967 0.19355633 449.51335934 0.20216837 454.88586158 0.221986 C456.83396549 0.22674303 458.78208957 0.22640393 460.73019058 0.22057563 C463.36991272 0.21343868 466.00893632 0.22460457 468.64860535 0.24050903 C469.7939202 0.23083133 469.7939202 0.23083133 470.96237272 0.22095811 C475.41411863 0.27160796 478.28781682 0.86365888 481.82430267 3.62361908 C483.1732824 6.32157854 482.95224525 8.40865744 482.95573044 11.43114948 C482.95957158 12.67562031 482.96341273 13.92009113 482.96737027 15.20227319 C482.96658993 16.59604321 482.96571113 17.98981317 482.96474457 19.38358307 C482.96732671 20.85430024 482.97033945 22.32501671 482.97374797 23.7957322 C482.98183893 27.85192579 482.9836087 31.90810171 482.98434544 35.96430242 C482.98619236 40.33318839 482.99373786 44.7020651 483.00048065 49.07094574 C483.01407936 58.63077424 483.02009108 68.19059855 483.02449131 77.75043511 C483.02725113 83.71617678 483.031488 89.68191682 483.03599548 95.64765739 C483.04819015 112.15506418 483.05848908 128.66246967 483.06187057 145.16988087 C483.06209014 146.22699003 483.06230971 147.2840992 483.06253593 148.37324197 C483.0627542 149.43292491 483.06297248 150.49260784 483.06319737 151.58440238 C483.06364085 153.73183334 483.06408741 155.8792643 483.06453705 158.02669525 C483.06475848 159.09190217 483.06497991 160.15710909 483.06520805 161.254595 C483.06915718 178.51996842 483.08661385 195.78529966 483.10989657 213.05065677 C483.13359079 230.7636903 483.14607155 248.47670264 483.14723849 266.18975228 C483.14815634 276.14024316 483.15393618 286.09067909 483.17205811 296.04115486 C483.18743309 304.5133748 483.19259499 312.98552282 483.18432 321.45775405 C483.18040424 325.78238563 483.18138804 330.10687225 483.19537735 334.43148613 C483.20806101 338.38857404 483.20696783 342.34540727 483.19478664 346.30249455 C483.19281999 347.73589485 483.19595249 349.16931285 483.204631 350.60268823 C483.21566537 352.54795129 483.20647589 354.49329783 483.19623947 356.43856525 C483.19683656 357.52006377 483.19743365 358.60156229 483.19804883 359.71583349 C482.7670342 363.06917404 481.8707256 364.94801689 479.82430267 367.62361908 C476.44208135 368.75102619 473.80791565 368.78279599 470.241539 368.82894135 C469.57785812 368.83884094 468.91417725 368.84874054 468.23038483 368.85894012 C466.03907068 368.89049998 463.84773486 368.91529063 461.65633392 368.94002533 C460.13603912 368.96059963 458.61574998 368.98159623 457.09546661 369.00299835 C453.0957218 369.05816992 449.09592578 369.10760083 445.09609222 369.15584564 C441.01391294 369.20609658 436.93180793 369.26176389 432.8496933 369.31697845 C424.84129258 369.4244999 416.83282968 369.52595819 408.82430267 369.62361908 C409.64221283 371.21230804 409.64221283 371.21230804 410.47664642 372.83309174 C412.50159456 376.77416913 414.51050339 380.72323988 416.51473236 384.67488861 C417.38344027 386.38218145 418.25644934 388.08729299 419.13387299 389.79012299 C420.39630614 392.24199146 421.64292524 394.70135817 422.88680267 397.16268158 C423.2805307 397.91916992 423.67425873 398.67565826 424.07991791 399.4550705 C426.19201243 403.67660349 427.39494519 406.78670139 426.82430267 411.62361908 C425.82430267 413.93611908 425.82430267 413.93611908 423.82430267 415.62361908 C421.08554888 416.5958174 418.69343103 417.17537453 415.82430267 416.62361908 C403.16421666 403.96353307 397.83124411 385.63750195 389.82430267 369.62361908 C287.52430267 369.62361908 185.22430267 369.62361908 79.82430267 369.62361908 C72.56430267 384.14361908 65.30430267 398.66361908 57.82430267 413.62361908 C53.82430267 416.62361908 53.82430267 416.62361908 50.88680267 417.12361908 C46.71019133 416.44172335 45.31514515 414.99358243 42.82430267 411.62361908 C42.01350507 405.95117038 44.22076598 402.04489595 46.76180267 397.16268158 C47.16133148 396.37211365 47.56086029 395.58154572 47.97249603 394.76702118 C49.24523308 392.25500583 50.53443977 389.7518765 51.82430267 387.24861908 C52.69259235 385.5421482 53.55979237 383.8351224 54.42586517 382.12752533 C56.54610918 377.95302323 58.68115971 373.78640828 60.82430267 369.62361908 C59.96874786 369.61775284 59.11319305 369.6118866 58.23171234 369.60584259 C50.16832675 369.54793539 42.10521874 369.47587012 34.04210281 369.38790417 C29.89676864 369.34317926 25.75153322 369.30392799 21.60604095 369.27718353 C17.60527918 369.25117144 13.60489702 369.21078435 9.60437012 369.16043282 C8.07820864 369.14374983 6.55198148 369.13224445 5.02574158 369.12600517 C2.88755258 369.11637925 0.75033786 369.0883405 -1.38761139 369.05599213 C-2.60450653 369.04488907 -3.82140167 369.03378601 -5.07517242 369.0223465 C-8.42996868 368.59091979 -9.82005438 368.01122965 -12.17569733 365.62361908 C-13.24978693 362.40135028 -13.3054023 360.08214252 -13.31271172 356.69304085 C-13.31778626 355.44657898 -13.3228608 354.2001171 -13.32808912 352.91588366 C-13.32869081 351.525056 -13.32918988 350.1342283 -13.32959747 348.74340057 C-13.33361175 347.27181996 -13.33804991 345.80024045 -13.34287703 344.32866228 C-13.35485179 340.27473233 -13.36049304 336.22081429 -13.36505818 332.16687012 C-13.37101066 327.79868029 -13.3826212 323.43050473 -13.39334869 319.06232452 C-13.41787781 308.5095179 -13.43249904 297.95670654 -13.44540876 287.40388018 C-13.44911982 284.42472733 -13.45309311 281.44557494 -13.45716143 278.46642256 C-13.48239313 259.97602839 -13.50445152 241.48563349 -13.51688957 222.99522591 C-13.51981938 218.71185173 -13.52278103 214.42847757 -13.52579498 210.14510345 C-13.52654103 209.08046204 -13.52728708 208.01582062 -13.52805574 206.91891734 C-13.54071806 189.66004321 -13.57395297 172.4012719 -13.61559682 155.14244588 C-13.6579766 137.43390173 -13.68157988 119.72541029 -13.68681014 102.01681554 C-13.69022836 92.06964617 -13.70203219 82.12263759 -13.73491287 72.17551804 C-13.76286 63.70695193 -13.77393618 55.23857956 -13.76271741 46.76997091 C-13.75751736 42.44725699 -13.76050435 38.12494916 -13.78518295 33.80229378 C-13.80757667 29.84695175 -13.80701352 25.89230981 -13.78797908 21.93695633 C-13.78516512 20.50425173 -13.79085476 19.07150064 -13.80579202 17.63887115 C-13.8248281 15.69462966 -13.81015147 13.75014492 -13.79372978 11.80587959 C-13.79508631 10.72492315 -13.79644284 9.64396671 -13.79784048 8.53025401 C-12.18509133 0.99553631 -6.83883782 -0.10996628 0 0 Z M2.82430267 16.62361908 C2.82430267 127.50361908 2.82430267 238.38361908 2.82430267 352.62361908 C155.94430267 352.62361908 309.06430267 352.62361908 466.82430267 352.62361908 C466.82430267 241.74361908 466.82430267 130.86361908 466.82430267 16.62361908 C313.70430267 16.62361908 160.58430267 16.62361908 2.82430267 16.62361908 Z " fill="#000000" transform="translate(21.175697326660156,47.376380920410156)"/>
<path d="M0 0 C1.11761719 0.37253906 2.23523438 0.74507813 3.38671875 1.12890625 C24.95671356 9.22117881 41.7741993 27.34400687 51.30859375 47.9296875 C53.98366174 54.09699975 55.63133371 60.42565499 57 67 C57.22623047 68.06541016 57.22623047 68.06541016 57.45703125 69.15234375 C57.77958857 71.11779304 57.91716477 73.00850298 58 75 C58.0515625 76.14597656 58.103125 77.29195313 58.15625 78.47265625 C58.89277269 103.10490893 50.44644687 126.4396934 33.48242188 144.49072266 C18.30188775 159.94626646 -3.6469225 171.04462738 -25.68212891 171.32983398 C-51.82983854 171.13429076 -73.99652485 163.59008833 -93.109375 145.05078125 C-109.75603032 128.05314223 -118.2855644 105.08150506 -118.24658203 81.49438477 C-117.82750581 56.3010148 -107.10026304 34.49199109 -89.0625 17 C-79.35490117 8.44003107 -67.4798871 1.50996825 -55 -2 C-54.0925 -2.29519531 -53.185 -2.59039062 -52.25 -2.89453125 C-34.94714921 -7.82854729 -16.76678958 -5.75222949 0 0 Z " fill="#030303" transform="translate(166,93)"/>
<path d="M0 0 C0.9778093 -0.00554901 1.95561859 -0.01109802 2.96305847 -0.01681519 C6.19136748 -0.02861436 9.41827378 -0.00433254 12.64648438 0.02148438 C14.89180436 0.02319546 17.13712635 0.02312982 19.38244629 0.0213623 C24.08670174 0.02301571 28.79048076 0.04171827 33.49462891 0.07324219 C39.52404007 0.11291941 45.55282712 0.11728746 51.58234406 0.10977936 C56.2183402 0.10670954 60.85419609 0.11883071 65.49015808 0.13591003 C67.71330383 0.14294039 69.93646548 0.14606452 72.15962219 0.1452179 C75.26686319 0.14701597 78.37335698 0.16839946 81.48046875 0.1953125 C82.39906174 0.1923819 83.31765472 0.18945129 84.26408386 0.18643188 C85.53829948 0.20345657 85.53829948 0.20345657 86.83825684 0.2208252 C87.57196251 0.22455391 88.30566818 0.22828262 89.06160736 0.23212433 C91.24023438 0.61523438 91.24023438 0.61523438 96.24023438 3.61523438 C103.50023437 18.13523437 110.76023437 32.65523438 118.24023438 47.61523438 C211.63023437 47.94523437 305.02023437 48.27523437 401.24023438 48.61523438 C401.24023438 43.33523438 401.24023438 38.05523437 401.24023438 32.61523438 C399.82756696 32.61984334 398.41489954 32.6244523 396.95942402 32.62920094 C363.4381296 32.73745112 329.91686818 32.81991731 296.39543669 32.87056102 C292.27102975 32.87681468 288.14662318 32.88328628 284.0222168 32.88989258 C283.20110929 32.89120413 282.38000178 32.89251568 281.53401222 32.89386698 C268.23245457 32.91563345 254.93100478 32.95506178 241.62951116 33.00099836 C227.98459401 33.04772852 214.33973341 33.07552247 200.69473952 33.08567685 C192.27255028 33.09254318 183.85066589 33.11424247 175.42857047 33.15481671 C169.65602921 33.18121266 163.88364593 33.18924256 158.11104868 33.18274126 C154.77853764 33.17953326 151.44699061 33.18722516 148.11450005 33.21126175 C144.50309384 33.23603918 140.8930054 33.23019382 137.28157043 33.21650696 C136.22612386 33.23107117 135.17067729 33.24563537 134.08324748 33.26064092 C129.31080717 33.21155389 127.00338821 33.18440615 123.08921337 30.26515484 C121.24023438 27.61523438 121.24023438 27.61523438 120.61523438 24.61523438 C121.49313936 20.40129046 122.77428078 19.18848602 126.24023438 16.61523438 C130.00162492 15.86896241 133.71411668 15.94952498 137.53817749 15.99377441 C138.69315597 15.98738559 139.84813445 15.98099677 141.03811228 15.97441435 C144.24029185 15.96179404 147.44149782 15.97160305 150.64361525 15.99092913 C154.09839362 16.00635375 157.55307602 15.9929548 161.00785828 15.98318481 C167.774808 15.96865331 174.54145784 15.98089768 181.30837916 16.00229806 C189.18952411 16.02630711 197.07060032 16.02459368 204.95177372 16.02199215 C219.01576298 16.01830118 233.07961099 16.03913277 247.14355469 16.07324219 C260.78779675 16.1063214 274.43189052 16.12050268 288.07617188 16.11425781 C302.93368511 16.1074911 317.7911362 16.10996298 332.64864028 16.12961721 C333.82763334 16.13117644 333.82763334 16.13117644 335.03044445 16.13276717 C336.60904899 16.13485806 338.18765351 16.13696904 339.76625799 16.13910034 C345.25834528 16.14599194 350.75041341 16.14666589 356.24250412 16.1452179 C362.93817026 16.14377693 369.63371556 16.15349165 376.32934164 16.17716426 C379.74489256 16.18901077 383.16027524 16.19615849 386.57584572 16.19032669 C390.28019821 16.18661723 393.98403133 16.2013422 397.68832397 16.2208252 C398.76566185 16.21549727 399.84299973 16.21016934 400.95298421 16.20467997 C412.93859365 16.31359365 412.93859365 16.31359365 417.24023438 20.61523438 C417.36617681 23.36841223 417.42891353 26.09510861 417.44335938 28.84960938 C417.44905945 29.67978577 417.45475952 30.50996216 417.46063232 31.36529541 C417.47009906 33.12730631 417.47662292 34.88933505 417.48046875 36.65136719 C417.49014415 39.34016197 417.52113847 42.0281827 417.55273438 44.71679688 C417.55926725 46.42772983 417.56451661 48.13866826 417.56835938 49.84960938 C417.58070618 50.65186951 417.59305298 51.45412964 417.60577393 52.28070068 C417.5876489 56.85368067 417.27889399 59.94285313 414.24023438 63.61523438 C410.73954742 64.78213003 408.0033919 64.7430504 404.30735111 64.74666214 C403.59428264 64.74871477 402.88121418 64.75076741 402.14653757 64.75288224 C399.73887436 64.75857106 397.33126802 64.75709269 394.92359924 64.75567627 C393.18731922 64.75825882 391.4510398 64.76127167 389.7147612 64.76467967 C384.92919615 64.77276569 380.14364609 64.77454013 375.35807502 64.77527714 C370.20257976 64.77712487 365.04709232 64.7846707 359.89160156 64.79141235 C348.61294578 64.80500675 337.33429354 64.81102188 326.05563092 64.81542301 C319.01799713 64.81818311 311.98036472 64.82241999 304.94273186 64.82692719 C285.47060132 64.83912043 265.99847189 64.8494202 246.52633762 64.85280228 C244.65620853 64.85313163 244.65620853 64.85313163 242.74829906 64.85346763 C241.49851209 64.85368591 240.24872513 64.85390418 238.96106583 64.85412908 C236.42838959 64.85457255 233.89571335 64.85501911 231.36303711 64.85546875 C229.4785825 64.85580089 229.4785825 64.85580089 227.5560581 64.85613975 C207.18614298 64.86009023 186.81626358 64.87755163 166.44636226 64.90082827 C145.55005723 64.92451443 124.65377015 64.93700285 103.75745147 64.93817019 C92.01792865 64.93908841 80.27845238 64.94487748 68.53894234 64.96298981 C58.54535049 64.97835381 48.55181959 64.98353316 38.55821819 64.9752517 C33.45600951 64.97133226 28.3539237 64.97233761 23.25172997 64.98630905 C18.58541835 64.99897054 13.91932292 64.99791927 9.25301193 64.98571834 C7.56057661 64.98374783 5.86812637 64.98690161 4.17571206 64.9955627 C1.88319464 65.00655659 -0.40854645 64.9992385 -2.70104122 64.98717117 C-3.97679419 64.98776826 -5.25254717 64.98836535 -6.56695932 64.98898053 C-9.98972764 64.58831529 -11.37657602 64.06151822 -13.75976562 61.61523438 C-14.75226399 58.63773928 -14.90912919 56.60049503 -14.95263672 53.48876953 C-14.97673111 51.92166733 -14.97673111 51.92166733 -15.00131226 50.32290649 C-15.04578905 45.55512174 -15.08680867 40.78747482 -15.10986328 36.01953125 C-15.12644187 33.50348676 -15.15375644 30.98748973 -15.19189453 28.47167969 C-15.24658779 24.84480347 -15.26852484 21.21902962 -15.28320312 17.59179688 C-15.3058725 16.46770416 -15.32854187 15.34361145 -15.35189819 14.18545532 C-15.34904816 13.1344162 -15.34619812 12.08337708 -15.34326172 11.00048828 C-15.35134857 10.07910065 -15.35943542 9.15771301 -15.36776733 8.20840454 C-13.43525286 -0.03390599 -7.0705358 -0.10208901 0 0 Z " fill="#000000" transform="translate(54.759765625,319.384765625)"/>
<path d="M0 0 C1.82375343 0.4572523 3.63702048 0.95830845 5.4375 1.5 C14.80670796 4.25951427 22.57163806 2.99536732 31.9140625 0.6875 C40.14158484 -1.145467 40.14158484 -1.145467 44 0 C49.2954258 4.00008318 50.54393848 8.72994424 52.375 14.8125 C55.298489 23.79069494 58.0265512 30.10635706 66.4375 35 C67.283125 35.33 68.12875 35.66 69 36 C69.29380531 44.66725664 69.29380531 44.66725664 67 49 C65 51 65 51 62.5625 51.8125 C59.24422972 53.35023501 58.66627636 54.76417045 57 58 C56.20529962 60.38137957 55.45877868 62.77914991 54.75 65.1875 C50.20096068 79.61038219 41.07701364 87.98139303 28 95 C20.81991913 97.39336029 11.62532582 97.33757803 4.52734375 94.71875 C1.48813018 92.993261 -1.23996583 91.14217674 -4 89 C-4.84433594 88.35160156 -5.68867188 87.70320313 -6.55859375 87.03515625 C-15.88662761 79.30008712 -20.26669127 69.69715303 -22.9375 58 C-24.26560766 54.25004896 -25.4938612 53.71230034 -29 52 C-32.87336245 49.18300913 -34.50809821 47.70799544 -35.37890625 42.9140625 C-35.5791298 40.41765829 -35.60204929 38.43851617 -35 36 C-33.21856642 34.39538365 -31.53261399 33.50543706 -29.3359375 32.55859375 C-22.34861072 27.89648106 -19.71903801 20.39665412 -17.375 12.6875 C-16.83288468 10.91667519 -16.27863787 9.14950797 -15.7109375 7.38671875 C-15.47681152 6.61545654 -15.24268555 5.84419434 -15.00146484 5.04956055 C-11.92694815 -1.2426305 -6.07338096 -0.6672165 0 0 Z " fill="#FDFDFD" transform="translate(327,136)"/>
<path d="M0 0 C27.39 0 54.78 0 83 0 C88.55435032 10.5532656 94.00243962 21.17195251 99 32 C66.33 32 33.66 32 0 32 C0 21.44 0 10.88 0 0 Z " fill="#FEFEFE" transform="translate(56,336)"/>
<path d="M0 0 C8.43035923 6.06985865 12.77784222 13.63527283 15.53125 23.5 C16.02625 24.985 16.02625 24.985 16.53125 26.5 C16.61231686 28.05421729 16.63881898 29.61167027 16.62890625 31.16796875 C16.62407227 32.50698242 16.62407227 32.50698242 16.61914062 33.87304688 C16.60657227 35.26620117 16.60657227 35.26620117 16.59375 36.6875 C16.58923828 37.62787109 16.58472656 38.56824219 16.58007812 39.53710938 C16.56829626 41.85813712 16.55184558 44.17903644 16.53125 46.5 C14.08266461 44.05141461 13.70234094 42.18153976 12.71875 38.875 C10.02490902 30.57478887 6.70769086 24.58331228 -0.46875 19.5 C-9.10559442 15.27061742 -19.12774201 17.11627306 -27.9609375 19.8203125 C-34.05592588 21.47222524 -39.21016318 20.65373949 -45.21875 19 C-53.33523476 16.82594158 -62.8139553 15.74533589 -70.69921875 19.34765625 C-80.11444995 25.47898783 -83.14410482 36.3605844 -86.46875 46.5 C-86.79875 46.5 -87.12875 46.5 -87.46875 46.5 C-87.99119398 34.15484234 -86.71515149 24.15161788 -78.46875 14.5 C-75.20544501 11.56942414 -71.76734192 9.19680542 -67.90625 7.125 C-65.4095967 5.46056447 -64.08763526 3.88470754 -62.21875 1.5625 C-49.07695021 -14.08113039 -15.47979932 -9.40544769 0 0 Z " fill="#F9F9F9" transform="translate(379.46875,103.5)"/>
<path d="M0 0 C13.86 0 27.72 0 42 0 C42.67655683 5.41245463 43.12799885 10.19071556 43.1328125 15.5703125 C43.13376923 16.25503632 43.13472595 16.93976013 43.13571167 17.64523315 C43.13638631 19.07875664 43.13458256 20.51228332 43.13037109 21.94580078 C43.12499582 24.12669776 43.13034904 26.3073904 43.13671875 28.48828125 C43.13605816 29.89062545 43.13477741 31.29296952 43.1328125 32.6953125 C43.13168457 33.95359863 43.13055664 35.21188477 43.12939453 36.50830078 C43 40 43 40 42 46 C28.14 46 14.28 46 0 46 C-0.72777513 41.6333492 -1.12820973 38.05792754 -1.1328125 33.7109375 C-1.13410156 32.52113281 -1.13539062 31.33132812 -1.13671875 30.10546875 C-1.13285156 28.87441406 -1.12898438 27.64335937 -1.125 26.375 C-1.12886719 25.16714844 -1.13273437 23.95929688 -1.13671875 22.71484375 C-1.13542969 21.51730469 -1.13414063 20.31976563 -1.1328125 19.0859375 C-1.13168457 18.0139209 -1.13055664 16.9419043 -1.12939453 15.83740234 C-0.95103513 10.54786827 -0.43952155 5.27425858 0 0 Z " fill="#FBFBFB" transform="translate(115,153)"/>
<path d="M0 0 C0.52464844 0.17015625 1.04929687 0.3403125 1.58984375 0.515625 C10.01562484 3.15131027 18.31657592 4.95684139 27 7 C27 24.16 27 41.32 27 59 C21.39 60.32 15.78 61.64 10 63 C4.98066195 64.44642897 4.98066195 64.44642897 0 66 C-8.8818059 50.77404703 -10.43471686 32.30516877 -6.25 15.375 C-4.78247357 9.88981924 -2.86337622 4.90864495 0 0 Z " fill="#FBFBFB" transform="translate(72,143)"/>
<path d="M0 0 C8.49883871 16.72026725 9.3490091 35.72166382 4.15625 53.5390625 C2.78277013 57.65022185 1.18152128 61.26024924 -1 65 C-1.6084375 64.82984375 -2.216875 64.6596875 -2.84375 64.484375 C-11.20109993 62.17381355 -19.57847375 60.10538156 -28 58 C-28 40.84 -28 23.68 -28 6 C-22.39 4.68 -16.78 3.36 -11 2 C-3 -1 -3 -1 0 0 Z " fill="#FBFBFB" transform="translate(201,144)"/>
<path d="M0 0 C0.79019531 0.3609375 1.58039063 0.721875 2.39453125 1.09375 C15.55728186 6.50928168 29.3469177 7.28438915 42.75 1.97265625 C43.4925 1.65167969 44.235 1.33070313 45 1 C45.99 0.67 46.98 0.34 48 0 C48.2475 1.134375 48.495 2.26875 48.75 3.4375 C49.93199002 8.22541608 51.88310791 12.56069233 54 17 C46.76737309 25.85996796 36.48923912 36.91955139 24.5625 38.4375 C15.30506646 38.27009614 7.57937276 31.27759542 1.171875 25.2578125 C-1.61995357 22.3555159 -3.83539904 19.39120816 -6 16 C-5.65066406 15.34773438 -5.30132812 14.69546875 -4.94140625 14.0234375 C-4.48636719 13.14945313 -4.03132813 12.27546875 -3.5625 11.375 C-3.11003906 10.51648438 -2.65757812 9.65796875 -2.19140625 8.7734375 C-0.92795818 5.83229608 -0.40376741 3.16516521 0 0 Z " fill="#FBFBFB" transform="translate(320,242)"/>
<path d="M0 0 C4.16259361 -0.0248456 8.32514713 -0.04292862 12.48779297 -0.05493164 C13.90186313 -0.0599392 15.31592816 -0.06674718 16.72998047 -0.07543945 C18.77052073 -0.08766256 20.81099212 -0.0932642 22.8515625 -0.09765625 C24.68968506 -0.10551147 24.68968506 -0.10551147 26.56494141 -0.11352539 C29.80432849 -0.00646676 32.82183197 0.38521382 36 1 C30.14810738 26.19756118 30.14810738 26.19756118 21 33 C18.5 34.125 18.5 34.125 16 34 C8.84026015 28.45120162 5.6429765 20.52847926 2.6875 12.25 C2.42074463 11.50459961 2.15398926 10.75919922 1.87915039 9.99121094 C0.66513981 6.45417254 0 3.77585994 0 0 Z " fill="#F9F9F9" transform="translate(118,214)"/>
<path d="M0 0 C9.2606714 8.14939083 12.94255314 20.20397135 15 32 C11.81797095 32.93967837 8.95274361 33.12881098 5.640625 33.1328125 C4.60679687 33.13410156 3.57296875 33.13539063 2.5078125 33.13671875 C0.89519531 33.13091797 0.89519531 33.13091797 -0.75 33.125 C-1.80960938 33.12886719 -2.86921875 33.13273437 -3.9609375 33.13671875 C-9.73621991 33.12955339 -15.28931859 32.86901674 -21 32 C-18.95004886 20.24694678 -15.01357967 9.08315396 -7 0 C-4.19664415 -1.40167793 -2.9650644 -0.96536981 0 0 Z " fill="#F9F9F9" transform="translate(139,105)"/>
<path d="M0 0 C3.96 1.98 7.92 3.96 12 6 C8.46321954 16.61034137 0.24802294 26.011443 -9.640625 31.453125 C-11.74081903 32.39094749 -13.82674058 33.2493331 -16 34 C-17.67262717 32.38113585 -19.33795537 30.7547271 -21 29.125 C-21.928125 28.22007812 -22.85625 27.31515625 -23.8125 26.3828125 C-26 24 -26 24 -26 22 C-24.1435827 20.67225146 -22.23673172 19.41490934 -20.3125 18.1875 C-12.56434278 13.08299715 -6.3454779 6.71935221 0 0 Z " fill="#FAFAFA" transform="translate(386,269)"/>
<path d="M0 0 C3.80200998 3.16834165 7.39010959 6.36176419 10.8125 9.9375 C15.52147676 14.72941372 20.96951769 18.98475885 27 22 C25.52278578 25.45201639 23.56205999 27.64961936 20.875 30.25 C20.15054687 30.95640625 19.42609375 31.6628125 18.6796875 32.390625 C18.12539063 32.92171875 17.57109375 33.4528125 17 34 C5.29891763 29.04571193 -3.72083335 21.11815746 -10 10 C-10.33 8.68 -10.66 7.36 -11 6 C-7.37 4.02 -3.74 2.04 0 0 Z " fill="#F9F9F9" transform="translate(301,269)"/>
<path d="M0 0 C6.82423338 1.23416987 13.39367844 2.8915995 20 5 C15.68055793 15.20123554 3.51481725 21.30653504 -6 26 C-6.66 26 -7.32 26 -8 26 C-7.2264561 21.5499497 -5.92250368 17.29808743 -4.5625 13 C-4.34529297 12.30132812 -4.12808594 11.60265625 -3.90429688 10.8828125 C-2.74346359 7.18766751 -1.50113611 3.57479855 0 0 Z " fill="#F5F5F5" transform="translate(170,217)"/>
<path d="M0 0 C10.49699583 3.17672242 19.52691111 10.06560933 27 18 C27.33 18.99 27.66 19.98 28 21 C25.25336296 21.86656998 22.5035757 22.71851786 19.75 23.5625 C18.97269531 23.80935547 18.19539063 24.05621094 17.39453125 24.31054688 C16.64042969 24.53935547 15.88632813 24.76816406 15.109375 25.00390625 C14.07248535 25.32597046 14.07248535 25.32597046 13.01464844 25.65454102 C10.71321296 26.0491764 9.20383318 25.71084423 7 25 C6.74605469 23.99839844 6.49210938 22.99679688 6.23046875 21.96484375 C5.88310265 20.62232073 5.53542995 19.27987701 5.1875 17.9375 C4.9390332 16.95233398 4.9390332 16.95233398 4.68554688 15.94726562 C3.801399 12.56081245 2.79444396 9.3894365 1.36328125 6.19140625 C0 3 0 3 0 0 Z " fill="#F6F6F6" transform="translate(162,109)"/>
<path d="M0 0 C0.80859375 2.37109375 0.80859375 2.37109375 1.4375 5.4375 C2.58333136 10.57229508 4.15924434 15.15572393 6.328125 19.94140625 C7 22 7 22 6 25 C-4.28922582 20.33272231 -13.47074985 14.53315017 -21 6 C-21 5.34 -21 4.68 -21 4 C-3.8315565 -1.2771855 -3.8315565 -1.2771855 0 0 Z " fill="#F6F6F6" transform="translate(103,218)"/>
<path d="M0 0 C1 2 1 2 0.07421875 4.94140625 C-0.38339844 6.13636719 -0.84101562 7.33132812 -1.3125 8.5625 C-2.90132736 12.77067227 -4.30252099 16.87826535 -5.125 21.3125 C-5.41375 22.529375 -5.7025 23.74625 -6 25 C-10.04234794 26.34744931 -13.08397752 25.18734641 -17.0625 24.125 C-17.79533203 23.93808594 -18.52816406 23.75117188 -19.28320312 23.55859375 C-24.67553571 22.16223214 -24.67553571 22.16223214 -27 21 C-22.98193199 11.43008532 -11.80356332 5.50227896 -3 1 C-2.01 0.67 -1.02 0.34 0 0 Z " fill="#F6F6F6" transform="translate(109,109)"/>
</svg>
